# xmcd
#
# Track frame offsets: 
#        150
#        11385
#        34965
#        52997
#        73785
#        105575
#        121785
#        147332
#        168977
#        190875
#
# Disc length: 2818 seconds
#
# Revision: 0
# Processed by: cddbd v1.5.2PL0 Copyright (c) Steve Scherf et al.
# Submitted via: ExactAudioCopy v1.0b3
#
DISCID=820b000a
DTITLE=Various Artist - Tieng Dan Toi
DYEAR=1996
DGENRE=
TTITLE0=Tuan Ngoc, Elvis Phuong, Duy Quang - Chien si vo danh
TTITLE1=Dalena - Day thon Vy Da
TTITLE2=Phi Khanh - Tieng dan toi
TTITLE3=Ai Van - Chu Cuoi
TTITLE4=Thai Chau, Duy Quang - LK Tha nhu giot mua
TTITLE5=Thai Hien - Dem Xuan
TTITLE6=Elvis Phuong - Ky vat cho em
TTITLE7=Huong Lan - Hoa thuong nho ai
TTITLE8=Quang Binh, Trang Thanh Lan - Tinh ngheo
TTITLE9=Thai Hien, Thai Thao, Thien Phuong - Xuan ca
EXTD=
EXTT0=
EXTT1=
EXTT2=
EXTT3=
EXTT4=
EXTT5=
EXTT6=
EXTT7=
EXTT8=
EXTT9=
PLAYORDER=
